<svg class="daniel-logo" id="Capa_2" data-name="Capa 2" xmlns="http://www.w3.org/2000/svg" viewBox="0 0 1080 413"><defs><style>.cls-1{fill:#606060;}</style></defs><title>daniel-logo</title><path class="cls-1" d="M605.32,117.36h57V323.75h-57Z"/><path class="cls-1" d="M677.85,117.36H842.54v49.9H734v31H832.3V243H734v32.47H844v48.26H677.85Z"/><path class="cls-1" d="M968.38,273.67h50.86v50.08H968.38Z"/><path class="cls-1" d="M117.58,117.14h-79v83.74H95.35V167.45h23.11c33.93,0,56.45,19,56.45,51.78v.58c0,32.55-21.86,51.16-54.93,51.72v50.24c71.49-1.43,113.15-44.73,113.15-102.84v-.58C233.13,159.26,190.71,117.14,117.58,117.14Z"/><polygon class="cls-1" points="951.99 274.03 912.48 274.03 912.48 117.36 855.73 117.36 855.73 323.75 951.99 323.75 951.99 274.03"/><path class="cls-1" d="M394.92,117.36v92.27L358.65,117H296.59L209.42,322.12h59.67l14.63-36.56h79l14.92,36.56H452V171.18l59.58,151.47h60.84l-.21-.53h16.61V117.36h-57V218.64L491.37,117.36H394.92M300.39,243l23.11-58.21L346.31,243Z"/></svg>